<?xml version="1.0" encoding="utf-8"?>
<!-- Generator: Adobe Illustrator 28.0.0, SVG Export Plug-In . SVG Version: 6.00 Build 0)  -->
<svg version="1.1" id="Layer_1" xmlns="http://www.w3.org/2000/svg" xmlns:xlink="http://www.w3.org/1999/xlink" x="0px" y="0px"
	 viewBox="0 0 376.49 376.3" style="enable-background:new 0 0 376.49 376.3;" xml:space="preserve">
<style type="text/css">
	.st0{fill:#35AF4E;stroke:#34AF4D;stroke-width:4.9242;stroke-miterlimit:10;}
	.st1{fill:#FFFFFF;stroke:#34AF4D;stroke-width:4.7819;stroke-miterlimit:10;}
	.st2{fill:#EE6E23;stroke:#ED6E24;stroke-width:4.9242;stroke-miterlimit:10;}
	.st3{fill:#FFFFFF;stroke:#EE6E23;stroke-width:4.9242;stroke-miterlimit:10;}
</style>
<g>
	<g>
		<g>
			<rect x="11.03" y="10.96" class="st0" width="170.52" height="170.52"/>
			<g>
				<path d="M57.18,46.68h21.56l39.07,68.63V46.68h19.17v98.43h-20.56L76.35,75.27v69.84H57.18V46.68z"/>
			</g>
		</g>
		<g>
			<rect x="194.88" y="11.07" class="st1" width="170.52" height="170.52"/>
			<g>
				<path d="M300.11,49.25c6.91,2.27,12.5,6.43,16.78,12.49c3.43,4.9,5.77,10.19,7.02,15.89s1.87,11.13,1.87,16.3
					c0,13.09-2.63,24.17-7.89,33.25c-7.13,12.24-18.14,18.36-33.02,18.36h-42.44V47.11h42.44C290.98,47.2,296.06,47.91,300.11,49.25
					z M262.4,64.2v64.24h19c9.72,0,16.5-4.79,20.33-14.36c2.1-5.25,3.14-11.51,3.14-18.77c0-10.02-1.57-17.71-4.72-23.07
					s-9.4-8.05-18.76-8.05H262.4V64.2z"/>
			</g>
		</g>
		<g>
			<rect x="194.88" y="194.87" class="st2" width="170.52" height="170.52"/>
			<g>
				<g>
					<path d="M250.58,242.51c7.93-8.1,18.01-12.15,30.26-12.15c16.38,0,28.36,5.43,35.94,16.29c4.18,6.1,6.43,12.22,6.74,18.36
						h-20.57c-1.31-4.72-2.99-8.28-5.04-10.68c-3.66-4.27-9.09-6.41-16.29-6.41c-7.33,0-13.11,3.02-17.34,9.05
						c-4.23,6.03-6.34,14.57-6.34,25.61s2.23,19.31,6.7,24.81c4.46,5.5,10.13,8.25,17.01,8.25c7.05,0,12.43-2.36,16.14-7.08
						c2.05-2.54,3.75-6.34,5.1-11.42h20.43c-1.76,10.73-6.27,19.46-13.51,26.18c-7.24,6.72-16.53,10.08-27.84,10.08
						c-14.01,0-25.02-4.54-33.03-13.62c-8.02-9.13-12.02-21.64-12.02-37.53C236.91,265.06,241.47,251.81,250.58,242.51z"/>
				</g>
			</g>
		</g>
		<g>
			<rect x="11.03" y="194.86" class="st3" width="170.52" height="170.52"/>
			<g>
				<path d="M105.47,330.33H85.03V231.9h20.44V330.33z"/>
			</g>
		</g>
	</g>
</g>
</svg>
